<?xml version="1.0" encoding="UTF-8"?>
<mxfile host="app.diagrams.net">
  <diagram name="Data Flow Diagram" id="bzkERgf0aSK6GzC6dnxn">
    <mxGraphModel dx="1242" dy="725" grid="1" gridSize="10" guides="1" tooltips="1" connect="1" arrows="1" fold="1" page="1" pageScale="1" pageWidth="827" pageHeight="1169" math="0" shadow="0">
      <root>
        <mxCell id="0"/>
        <mxCell id="1" parent="0"/>
        <mxCell id="2" value="Simple Sources&#xa;(e.g. CSV, JSON, APIs)" style="rounded=1;whiteSpace=wrap;html=1;" vertex="1" parent="1">
          <mxGeometry x="40" y="160" width="140" height="60" as="geometry"/>
        </mxCell>
        <mxCell id="3" value="Apache Spark&#xa;(Initial Ingestion)" style="rounded=1;whiteSpace=wrap;html=1;fillColor=#dae8fc;" vertex="1" parent="1">
          <mxGeometry x="240" y="160" width="160" height="60" as="geometry"/>
        </mxCell>
        <mxCell id="4" value="MongoDB&#xa;(Raw Storage)" style="rounded=1;whiteSpace=wrap;html=1;fillColor=#f8cecc;" vertex="1" parent="1">
          <mxGeometry x="460" y="100" width="140" height="60" as="geometry"/>
        </mxCell>
        <mxCell id="5" value="Apache Spark&#xa;(Processing &amp; Transformation)" style="rounded=1;whiteSpace=wrap;html=1;fillColor=#dae8fc;" vertex="1" parent="1">
          <mxGeometry x="460" y="220" width="200" height="60" as="geometry"/>
        </mxCell>
        <mxCell id="6" value="HDFS&#xa;(Parquet/ORC)" style="rounded=1;whiteSpace=wrap;html=1;fillColor=#fff2cc;" vertex="1" parent="1">
          <mxGeometry x="700" y="100" width="140" height="60" as="geometry"/>
        </mxCell>
        <mxCell id="7" value="Apache Hive&#xa;(SQL Interface)" style="rounded=1;whiteSpace=wrap;html=1;fillColor=#d5e8d4;" vertex="1" parent="1">
          <mxGeometry x="700" y="220" width="140" height="60" as="geometry"/>
        </mxCell>
        <mxCell id="8" value="Streamlit Dashboard&#xa;(Interactive Visualization)" style="rounded=1;whiteSpace=wrap;html=1;fillColor=#e1d5e7;" vertex="1" parent="1">
          <mxGeometry x="920" y="160" width="180" height="60" as="geometry"/>
        </mxCell>
        <mxCell id="9" style="endArrow=block;html=1;strokeWidth=2;" edge="1" parent="1" source="2" target="3">
          <mxGeometry relative="1" as="geometry"/>
        </mxCell>
        <mxCell id="10" style="endArrow=block;html=1;strokeWidth=2;" edge="1" parent="1" source="3" target="4">
          <mxGeometry relative="1" as="geometry"/>
        </mxCell>
        <mxCell id="11" style="endArrow=block;html=1;strokeWidth=2;" edge="1" parent="1" source="4" target="5">
          <mxGeometry relative="1" as="geometry"/>
        </mxCell>
        <mxCell id="12" style="endArrow=block;html=1;strokeWidth=2;" edge="1" parent="1" source="5" target="6">
          <mxGeometry relative="1" as="geometry"/>
        </mxCell>
        <mxCell id="13" style="endArrow=block;html=1;strokeWidth=2;" edge="1" parent="1" source="6" target="7">
          <mxGeometry relative="1" as="geometry"/>
        </mxCell>
        <mxCell id="14" style="endArrow=block;html=1;strokeWidth=2;" edge="1" parent="1" source="7" target="8">
          <mxGeometry relative="1" as="geometry"/>
        </mxCell>
      </root>
    </mxGraphModel>
  </diagram>
</mxfile>
